# xmcd
#
# Track frame offsets: 
#        150
#        14052
#        24796
#        33202
#        46189
#        57915
#        69169
#        78318
#        89835
#        100392
#        114958
#        125482
#        135725
#        152571
#        162657
#        174679
#        187463
#        199320
#        212654
#        223828
#        235825
#        264578
#        288246
#        305847
#        323086
#
# Disc length: 4604 seconds
#
# Revision: 1
# Processed by: cddbd v1.5.2PL0 Copyright (c) Steve Scherf et al.
# Submitted via: ExactAudioCopy v1.3
#
DISCID=7211fa19
DTITLE=寺内タケシ - Nippon Guitars - Instrumental Surf, Eleki and Tsugaru Roc
DTITLE=k 1966-1974
DYEAR=2011
DGENRE=JPop
TTITLE0=元禄花見踊り
TTITLE1=星への旅路
TTITLE2=さのさ
TTITLE3=太陽の叫び
TTITLE4=ライジング・ギター
TTITLE5=通りゃんせ
TTITLE6=佐渡おけさ
TTITLE7=黒田節
TTITLE8=サウス・ピア
TTITLE9=レッツ・ゴー・ブガルー
TTITLE10=サマー・ブガルー
TTITLE11=命預けます
TTITLE12=明烏
TTITLE13=愛のきずな
TTITLE14=銀座の女
TTITLE15=名月赤城山
TTITLE16=明治一代女
TTITLE17=雨降る街角
TTITLE18=啼くな小鳩よ
TTITLE19=おんな船頭唄
TTITLE20=次郎長三国志
TTITLE21=南部坂雲の別れ
TTITLE22=津軽山彦唄
TTITLE23=津軽花笠
TTITLE24=津軽エレキ節
EXTD=
EXTT0=
EXTT1=
EXTT2=
EXTT3=
EXTT4=
EXTT5=
EXTT6=
EXTT7=
EXTT8=
EXTT9=
EXTT10=
EXTT11=
EXTT12=
EXTT13=
EXTT14=
EXTT15=
EXTT16=
EXTT17=
EXTT18=
EXTT19=
EXTT20=
EXTT21=
EXTT22=
EXTT23=
EXTT24=
PLAYORDER=
